<svg xmlns="http://www.w3.org/2000/svg" xmlns:xlink="http://www.w3.org/1999/xlink" viewBox="0 0 800 800">
	<g class="cls-1">
		<g id="small-logo-jc" data-name="Layer 1">
			<path class="logo-foreground-letter-J-bottom"
				d="M178.35,511.33V486.87c0-34.27-26.48-62.06-59.15-62.06H68.41v122.1c0,40.1,20,77.65,53.23,97.48C279.2,738.43,368,613.78,368,613.78c-37.63-41-52-108.28-52-108.28-21.84,62.88-63.93,60.1-101.19,52.33C193.61,553.42,178.35,534,178.35,511.33Z" />
			<path class="logo-foreground-letter-J-top"
				d="M316,133V302.55s12.89-55.15,51.59-99.35c25.05-28.62,39.09-39.14,77.78-62.75L461,133Z" />
			<path class="logo-foreground-letter-C"
				d="M739.93,182S570.46,60.37,413.7,217.78s-30.77,350.6-30.77,350.6,75.93,132.83,275.38,102c0,0,60.69-13.63,81.62-37.48V457.48s-25.68,98.24-130.78,107.11-146.57-87.72-146.57-87.72S417.93,400,480.38,308.76s166.35-50.24,166.35-50.24,67.42,25.31,93.2,99Z" />
		</g>
	</g>
</svg>
