<svg id="Layer_1" data-name="Layer 1" xmlns="http://www.w3.org/2000/svg" viewBox="0 0 1920 527">
	<defs>
		<style>
			/* .extended-logo-default {
				fill: #ddd9d7;
			} */

			/* .extended-logo-primary {
				fill: #ff933b;
			} */
		</style>
	</defs>
	<path class="extended-logo-default"
		d="M142.34,324.66V308a33.12,33.12,0,0,0-33.12-33.12H76v70.22c0,23.06,12.07,44.65,32.12,56.05,95.07,54.08,150.74-17.6,150.74-17.6-22.7-23.59-31.36-62.27-31.36-62.27-13.18,36.16-40.69,34.56-63.18,30.1A27.27,27.27,0,0,1,142.34,324.66Z" />
	<path class="extended-logo-default" d="M227.5,107.11v97.5S247.64,142,293.84,116.7l16.94-9.59Z" />
	<path class="extended-logo-default"
		d="M489.15,135.27S386.89,65.34,292.3,155.86s-18.57,201.61-18.57,201.61,45.82,76.39,166.17,58.66c0,0,36.62-7.83,49.25-21.55V293.7s-15.5,56.49-78.91,61.59-88.45-50.44-88.45-50.44-26.94-44.23,10.74-96.67,100.38-28.9,100.38-28.9,40.69,14.56,56.24,56.91Z" />
	<path class="extended-logo-default"
		d="M518.93,108.79V397.28a23.27,23.27,0,0,0,23.26,23.27h43.08V287.71H715.78V221.36H585.27v-88a24.59,24.59,0,0,0-24.59-24.59Z" />
	<path class="extended-logo-default"
		d="M746.88,106h16.48L933.63,276.24V107.68h38.09A28.25,28.25,0,0,1,1000,135.92v14.33s-37.83,48-37.83,113S1000,375.79,1000,375.79v44.76H984.1L813.22,249.68V420.14H769.31a22.44,22.44,0,0,1-22.43-22.44Z" />
	<path class="extended-logo-primary"
		d="M1461.52,234.39a90.92,90.92,0,1,1-17.17-29.14L1388.1,109.8c-3.92-.3-7.85-.5-11.84-.5-85.81,0-155.63,69.81-155.63,155.62s69.82,155.63,155.63,155.63a155.78,155.78,0,0,0,141.43-90.84Z" />
	<polygon class="extended-logo-default"
		points="1428.13 104 1471.05 104 1626.46 394.46 1619.1 417.64 1597.22 417.64 1428.13 104" />
	<polygon class="extended-logo-default"
		points="1664.47 177.28 1687.86 213.98 1745.17 104 1704.82 104 1664.47 177.28" />
	<path class="extended-logo-primary"
		d="M1504.44,104l171.72,311.87h18.12l150-277.39c8.33-15.4-2.31-34.48-19.22-34.48h-45.33l-94.85,168.1-90.82-157A21.88,21.88,0,0,0,1575.22,104Z" />
	<path class="extended-logo-primary"
		d="M1204.74,333.61a90.29,90.29,0,1,1,.06-139.56,181.53,181.53,0,0,1,36.57-55.63,156.65,156.65,0,1,0-.81,251.56c.26-.2.5-.42.76-.62A181.33,181.33,0,0,1,1204.74,333.61Z" />
</svg>
