<svg xmlns="http://www.w3.org/2000/svg" viewBox="0 0 1057.99 750">
	<g id="Camada_2" data-name="Camada 2">
		<g id="JC-logo">
			<path
				d="M686,722.5Q631,695,600.49,645T570,530V220q0-66,30.5-116T686,27Q741,0,814,0T942,27q55,27,85.5,77T1058,220H908q0-43-24.5-66.5T814,130q-45,0-69.5,23.5T720,220V530q0,43,24.5,66.5T814,620q45,0,69.5-23.5T908,530h150q0,66-30.5,116T942,723q-55,27-128,27T686,722.5Z" />
			<path
				d="M67.5,683.5Q0,621.5,0,514.5H150q0,47,27,74t73,27q46,0,73-26.5t27-72.5v-372H185V4.5H500v512q0,106-67.5,167.5T250,745.5Q135,745.5,67.5,683.5Z" />
		</g>
	</g>
</svg>
