<svg width="110" height="110" viewBox="0 0 110 110" fill="none" xmlns="http://www.w3.org/2000/svg">
<path d="M109.264 54.632C109.264 84.804 84.804 109.264 54.632 109.264C24.46 109.264 0 84.804 0 54.632C0 24.46 24.46 6.91621e-06 54.632 6.91621e-06C84.804 6.91621e-06 109.264 24.46 109.264 54.632Z" fill="#045CF1"/>
<path d="M34.2858 59.9764C38.3911 59.9764 41.7191 56.5831 41.7191 52.3804C41.7191 48.1457 38.3911 44.7524 34.2858 44.7524C30.2124 44.7524 26.8191 48.1457 26.8191 52.3804C26.8191 56.6151 30.1484 59.9764 34.2858 59.9764ZM23.4258 41.9724H26.8191V44.6231L27.8538 43.8804C29.7604 42.5217 31.9911 41.8431 34.2858 41.8431C40.0711 41.8431 45.1778 46.3364 45.1778 52.3804C45.1778 58.3924 40.1031 62.9177 34.2858 62.9177C31.9591 62.9177 29.7604 62.2071 27.8858 60.8484L26.8191 60.0737V69.9644H23.4258V41.9724Z" fill="white"/>
<path d="M49.8644 42.0049H53.355V43.8796L54.3897 43.2329C55.9084 42.2316 57.6537 41.7783 59.4964 41.7783H60.7897V44.7529H59.4964C56.0377 44.7529 53.355 47.5649 53.355 51.0876V62.9183H49.8644V42.0049Z" fill="white"/>
<path d="M82.3155 52.4128C82.3155 48.1141 78.8888 44.6555 74.7195 44.6555C70.5502 44.6555 67.1235 48.0821 67.1235 52.4128C67.1235 56.6795 70.5502 60.2021 74.7195 60.2021C78.9542 60.2021 82.3155 56.7115 82.3155 52.4128ZM74.7195 41.6821C80.6355 41.6821 85.8382 46.2715 85.8382 52.4128C85.8382 58.5541 80.6675 63.1768 74.7195 63.1768C68.8688 63.1768 63.6008 58.5221 63.6008 52.4128C63.6008 46.2715 68.8688 41.6821 74.7195 41.6821Z" fill="white"/>
</svg>
