<?xml version="1.0" encoding="iso-8859-1"?>
<!-- Generator: Adobe Illustrator 16.0.2, SVG Export Plug-In . SVG Version: 6.00 Build 0)  -->
<!DOCTYPE svg PUBLIC "-//W3C//DTD SVG 1.1//EN" "http://www.w3.org/Graphics/SVG/1.1/DTD/svg11.dtd">
<svg version="1.1" id="Layer_1" xmlns="http://www.w3.org/2000/svg" xmlns:xlink="http://www.w3.org/1999/xlink" x="0px" y="0px"
	 width="1369.08px" height="684.5px" viewBox="0 0 1369.08 684.5" style="enable-background:new 0 0 1369.08 684.5;"
	 xml:space="preserve">
<polygon style="fill:#FFFFFF;" points="217.631,247.216 271.002,361.453 324.375,247.216 388.048,247.216 285.984,449.939 
	256.02,449.939 153.958,247.216 "/>
<polygon style="fill:#FFFFFF;" points="537.506,247.216 590.877,361.453 644.25,247.216 707.923,247.216 605.859,449.939 
	575.895,449.939 473.833,247.216 "/>
<g>
	<defs>
		<rect id="SVGID_1_" width="1369.083" height="684.5"/>
	</defs>
	<clipPath id="SVGID_2_">
		<use xlink:href="#SVGID_1_"  style="overflow:visible;"/>
	</clipPath>
	<path style="clip-path:url(#SVGID_2_);fill:#FFFFFF;" d="M953.904,368.914l-13.126-4.682
		c-13.962-4.932-30.098-11.203-42.137-22.991c-0.46-0.418-0.92-0.878-1.38-1.338c-9.363-9.823-15.467-22.489-15.467-38.875
		c0-17.223,7.19-31.937,16.847-41.886c1.38-1.421,2.759-2.759,4.223-3.971c4.263-3.386,8.819-6.02,13.585-7.984h-57.061v26.251
		c-19.187-29.972-49.618-32.773-65.085-32.773c-59.902,0-100.659,47.739-100.659,107.683c0,59.441,41.217,108.141,103.46,108.141
		c14.548,0,41.677-3.302,62.284-32.771v26.209h49.327c-3.595-1.295-6.938-2.801-10.074-4.348
		c-13.712-6.855-23.367-15.718-29.973-22.823l29.973-34.612c2.885,3.386,6.145,6.563,9.698,9.406
		c10.199,8.317,22.74,14.003,35.239,14.003c3.135,0,6.145-0.334,8.945-0.961c11.329-2.468,19.146-9.824,19.146-21.068
		C971.67,376.898,961.386,371.758,953.904,368.914 M808.809,405.909c-32.772,0-56.182-25.29-56.182-57.561
		c0-32.313,23.409-57.144,56.182-57.144c32.773,0,56.183,24.831,56.183,57.144C864.991,380.619,841.582,405.909,808.809,405.909"/>
	<path style="clip-path:url(#SVGID_2_);fill:#FFFFFF;" d="M430.886,127.351c18.727,0,34.176,15.451,34.176,34.176
		c0,18.73-15.449,34.181-34.176,34.181s-34.178-15.451-34.178-34.181C396.708,142.802,412.159,127.351,430.886,127.351"/>
	<rect x="402.326" y="247.205" style="clip-path:url(#SVGID_2_);fill:#FFFFFF;" width="57.119" height="202.724"/>
	<path style="clip-path:url(#SVGID_2_);fill:#FFFFFF;" d="M1184.693,267.795c-22.95-22.949-51.5-27.129-69.266-27.129
		c-37.455,0-57.145,20.107-66.049,32.773v-26.252h-55.596c8.402,3.219,17.389,7.942,26.586,15.007l-28.091,33.233
		c-13.586-12.625-27.13-13.586-33.233-13.586c-13.585,0-21.987,6.563-21.987,16.386c0,5.142,2.341,13.126,18.226,18.268
		l13.586,4.222c6.855,2.215,15.174,4.974,23.409,8.611c10.827,4.849,21.444,11.329,28.091,20.398
		c6.104,8.445,10.325,20.609,10.325,33.735c0,18.225-6.103,36.493-22.49,51.5c-5.016,4.556-10.283,8.36-15.926,11.37v110.816h57.101
		V423.717c22.49,30.432,51.041,32.773,65.086,32.773c29.973,0,53.382-11.705,68.849-26.21
		c11.705-11.245,31.811-36.075,31.811-81.933C1215.124,308.051,1199.699,282.802,1184.693,267.795 M1138.334,391.404
		c-7.481,7.022-19.646,14.505-38.374,14.505c-17.808,0-29.972-7.022-37.455-13.585c-11.243-9.824-18.727-25.249-18.727-43.977
		c0-18.727,6.563-32.773,19.187-43.558c10.325-9.363,22.03-13.585,36.995-13.585c13.585,0,28.552,5.141,38.876,14.505
		c11.203,10.785,17.307,27.631,17.307,42.638C1156.143,363.313,1150.54,380.159,1138.334,391.404"/>
	<polygon style="clip-path:url(#SVGID_2_);fill:#FFFFFF;" points="217.631,247.216 271.002,361.453 324.375,247.216 
		388.048,247.216 285.984,449.939 256.02,449.939 153.958,247.216 	"/>
	<polygon style="clip-path:url(#SVGID_2_);fill:#FFFFFF;" points="537.506,247.216 590.877,361.453 644.25,247.216 707.923,247.216 
		605.859,449.939 575.895,449.939 473.833,247.216 	"/>
	<path style="clip-path:url(#SVGID_2_);fill:#FFFFFF;" d="M953.904,368.914l-13.126-4.682
		c-13.962-4.932-30.098-11.203-42.137-22.991c-0.46-0.418-0.92-0.878-1.38-1.338c-9.363-9.823-15.467-22.489-15.467-38.875
		c0-17.223,7.19-31.937,16.847-41.886c1.38-1.421,2.759-2.759,4.223-3.971c4.263-3.386,8.819-6.02,13.585-7.984h-57.061v26.251
		c-19.187-29.972-49.618-32.773-65.085-32.773c-59.902,0-100.659,47.739-100.659,107.683c0,59.441,41.217,108.141,103.46,108.141
		c14.548,0,41.677-3.302,62.284-32.771v26.209h49.327c-3.595-1.295-6.938-2.801-10.074-4.348
		c-13.712-6.855-23.367-15.718-29.973-22.823l29.973-34.612c2.885,3.386,6.145,6.563,9.698,9.406
		c10.199,8.317,22.74,14.003,35.239,14.003c3.135,0,6.145-0.334,8.945-0.961c11.329-2.468,19.146-9.824,19.146-21.068
		C971.67,376.898,961.386,371.758,953.904,368.914 M808.809,405.909c-32.772,0-56.182-25.29-56.182-57.561
		c0-32.313,23.409-57.144,56.182-57.144c32.773,0,56.183,24.831,56.183,57.144C864.991,380.619,841.582,405.909,808.809,405.909"/>
	<path style="clip-path:url(#SVGID_2_);fill:#FFFFFF;" d="M430.886,127.351c18.727,0,34.176,15.451,34.176,34.176
		c0,18.73-15.449,34.181-34.176,34.181s-34.178-15.451-34.178-34.181C396.708,142.802,412.159,127.351,430.886,127.351"/>
	<rect x="402.326" y="247.205" style="clip-path:url(#SVGID_2_);fill:#FFFFFF;" width="57.119" height="202.724"/>
	<path style="clip-path:url(#SVGID_2_);fill:#FFFFFF;" d="M1184.693,267.795c-22.95-22.949-51.5-27.129-69.266-27.129
		c-37.455,0-57.145,20.107-66.049,32.773v-26.252h-55.596c8.402,3.219,17.389,7.942,26.586,15.007l-28.091,33.233
		c-13.586-12.625-27.13-13.586-33.233-13.586c-13.585,0-21.987,6.563-21.987,16.386c0,5.142,2.341,13.126,18.226,18.268
		l13.586,4.222c6.855,2.215,15.174,4.974,23.409,8.611c10.827,4.849,21.444,11.329,28.091,20.398
		c6.104,8.445,10.325,20.609,10.325,33.735c0,18.225-6.103,36.493-22.49,51.5c-5.016,4.556-10.283,8.36-15.926,11.37v110.816h57.101
		V423.717c22.49,30.432,51.041,32.773,65.086,32.773c29.973,0,53.382-11.705,68.849-26.21
		c11.705-11.245,31.811-36.075,31.811-81.933C1215.124,308.051,1199.699,282.802,1184.693,267.795 M1138.334,391.404
		c-7.481,7.022-19.646,14.505-38.374,14.505c-17.808,0-29.972-7.022-37.455-13.585c-11.243-9.824-18.727-25.249-18.727-43.977
		c0-18.727,6.563-32.773,19.187-43.558c10.325-9.363,22.03-13.585,36.995-13.585c13.585,0,28.552,5.141,38.876,14.505
		c11.203,10.785,17.307,27.631,17.307,42.638C1156.143,363.313,1150.54,380.159,1138.334,391.404"/>
</g>
</svg>
